<!-- Generated by info.malignantshadow.akensha.svg -->
<!-- Created Oct 18, 2017; 05:53:37PM PDT -->
<!DOCTYPE svg PUBLIC "-//W3C//DTD SVG 1.1/EN" "http:///www.w3.org/Graphics/SVG/1.1/DTD/svg11.dtd">
<svg viewBox="0 0 294 800" xmlns="http://www.w3.org/2000/svg">
  <circle fill="black" cx="47" cy="208" r="6"/>
  <circle fill="black" cx="197" cy="97" r="6"/>
  <path fill="none" stroke="#000" stroke-linecap="round" stroke-width="6" d="M147 78 L147 147 L147 178 M147 108 L47 208 M147 147 L197 97"/>
  <circle fill="black" cx="272" cy="333" r="6"/>
  <path fill="none" stroke="#000" stroke-linecap="round" stroke-width="6" d="M147 178 L147 247 L114 278 M147 208 L272 333"/>
  <circle fill="black" cx="44" cy="297" r="6"/>
  <circle fill="black" cx="214" cy="543" r="6"/>
  <path fill="none" stroke="#000" stroke-linecap="round" stroke-width="6" d="M114 278 L114 347 L114 378 M114 347 L94 347 L44 297 M114 308 L214 408 L214 543"/>
  <circle fill="black" cx="39" cy="483" r="6"/>
  <circle fill="black" cx="189" cy="522" r="6"/>
  <path fill="none" stroke="#000" stroke-linecap="round" stroke-width="6" d="M114 378 L114 447 L114 478 M114 408 L39 483 M114 447 L189 522"/>
  <circle fill="black" cx="79" cy="523" r="6"/>
  <path fill="none" stroke="#000" stroke-linecap="round" stroke-width="6" d="M114 478 L114 547 L147 578 M114 508 L94 508 L79 523"/>
  <circle fill="black" cx="22" cy="22" r="6"/>
  <circle fill="black" cx="180" cy="641" r="6"/>
  <path fill="none" stroke="#000" stroke-linecap="round" stroke-width="6" d="M147 578 L147 647 L147 678 M147 647 L22 522 L22 22 M147 608 L180 641"/>
  <circle fill="black" cx="232" cy="333" r="6"/>
  <path fill="none" stroke="#000" stroke-linecap="round" stroke-width="6" d="M147 678 L147 747 L114 778 M147 708 L232 623 L232 333"/>
  <circle fill="black" cx="147" cy="78" r="6"/>
  <circle fill="black" cx="114" cy="778" r="6"/>
</svg>